# xmcd
#
# Track frame offsets: 
#        150
#        16975
#        33519
#        51045
#        70541
#        84125
#        99124
#        114740
#        131651
#        147873
#        161925
#        182811
#        197005
#        213689
#        234226
#
# Disc length: 3409 seconds
#
# Revision: 0
# Processed by: cddbd v1.5.2PL0 Copyright (c) Steve Scherf et al.
# Submitted via: ExactAudioCopy v0.99pb5
#
DISCID=c70d4f0f
DTITLE=Various Artist - Новогодняя Тридцадка СD 2
DYEAR=2001
DGENRE=Chanson
TTITLE0=Александ Розенбаум/Рубашка на распашку
TTITLE1=Андрей Бандера/Метелица
TTITLE2=Верка Сердючка/Все будет хорошо
TTITLE3=Валерий Курас/Летают и тают
TTITLE4=Вечаслав Малежик/Старый Новый год
TTITLE5=Любаша/Снег падает на всех
TTITLE6=Вика Цыганова/Давай гармонь
TTITLE7=Евгений Кемеровский/Москва-Одесса
TTITLE8=А.Маршал и В.Быков/Пусть зима станет летом
TTITLE9=Евгений Росс/Белый снег за окном
TTITLE10=Виталий аксенов/Подарки
TTITLE11=В.Харламов/Зимний вечер
TTITLE12=Владимир Захаров/За окном
TTITLE13=М.Шифутинский/Бутылка вина
TTITLE14=А.Малинин/Новый год
EXTD=
EXTT0=
EXTT1=
EXTT2=
EXTT3=
EXTT4=
EXTT5=
EXTT6=
EXTT7=
EXTT8=
EXTT9=
EXTT10=
EXTT11=
EXTT12=
EXTT13=
EXTT14=
PLAYORDER=
